<svg width="31" height="31" viewBox="0 0 31 31" fill="none" xmlns="http://www.w3.org/2000/svg">
<path d="M3.2679 19.0774C2.99322 20.878 4.22125 22.1278 5.72481 22.7507C11.4892 25.1387 19.511 25.1387 25.2753 22.7507C26.7789 22.1278 28.0069 20.878 27.7323 19.0774C27.5635 17.9709 26.7288 17.0494 26.1104 16.1496C25.3003 14.9566 25.2199 13.6553 25.2197 12.2709C25.2197 6.92061 20.8681 2.58337 15.5001 2.58337C10.1321 2.58337 5.78046 6.92061 5.78046 12.2709C5.78033 13.6553 5.69985 14.9566 4.88983 16.1496C4.27142 17.0494 3.4367 17.9709 3.2679 19.0774Z" stroke="#F29C12" stroke-width="3" stroke-linecap="round" stroke-linejoin="round"/>
<path d="M10.3333 24.5416C10.9255 26.77 13.0141 28.4166 15.4999 28.4166C17.9857 28.4166 20.0744 26.77 20.6666 24.5416" stroke="#F29C12" stroke-width="2" stroke-linecap="round" stroke-linejoin="round"/>
<circle cx="22.5" cy="6.5" r="6.5" fill="#FF471E"/>
</svg>
