<svg width="40" height="40" viewBox="0 0 40 40" fill="none" xmlns="http://www.w3.org/2000/svg">
<circle cx="20" cy="20" r="20" fill="#F29C12"/>
<path d="M20.2 20C21.3866 20 22.5467 19.6481 23.5334 18.9888C24.5201 18.3295 25.2891 17.3925 25.7432 16.2961C26.1974 15.1997 26.3162 13.9933 26.0847 12.8295C25.8532 11.6656 25.2817 10.5965 24.4426 9.75736C23.6035 8.91825 22.5344 8.3468 21.3705 8.11529C20.2066 7.88378 19.0002 8.0026 17.9039 8.45673C16.8075 8.91085 15.8704 9.67989 15.2111 10.6666C14.5518 11.6533 14.2 12.8133 14.2 14C14.2015 15.5908 14.8342 17.116 15.9591 18.2409C17.0839 19.3658 18.6091 19.9984 20.2 20ZM20.2 10C20.9911 10 21.7644 10.2346 22.4222 10.6741C23.08 11.1137 23.5927 11.7384 23.8955 12.4693C24.1982 13.2002 24.2774 14.0044 24.1231 14.7804C23.9688 15.5563 23.5878 16.269 23.0284 16.8284C22.469 17.3878 21.7562 17.7688 20.9803 17.9231C20.2044 18.0775 19.4001 17.9983 18.6692 17.6955C17.9383 17.3928 17.3136 16.8801 16.8741 16.2223C16.4345 15.5645 16.2 14.7911 16.2 14C16.2 12.9391 16.6214 11.9217 17.3715 11.1716C18.1217 10.4214 19.1391 10 20.2 10Z" fill="#F9F9F9"/>
<path d="M20.2 22C17.8138 22.0026 15.5262 22.9517 13.8389 24.639C12.1517 26.3262 11.2026 28.6139 11.2 31C11.2 31.2652 11.3053 31.5196 11.4928 31.7071C11.6804 31.8946 11.9347 32 12.2 32C12.4652 32 12.7195 31.8946 12.9071 31.7071C13.0946 31.5196 13.2 31.2652 13.2 31C13.2 29.1435 13.9374 27.363 15.2502 26.0503C16.563 24.7375 18.3434 24 20.2 24C22.0565 24 23.8369 24.7375 25.1497 26.0503C26.4625 27.363 27.2 29.1435 27.2 31C27.2 31.2652 27.3053 31.5196 27.4928 31.7071C27.6804 31.8946 27.9347 32 28.2 32C28.4652 32 28.7195 31.8946 28.9071 31.7071C29.0946 31.5196 29.2 31.2652 29.2 31C29.1973 28.6139 28.2482 26.3262 26.561 24.639C24.8737 22.9517 22.5861 22.0026 20.2 22Z" fill="#F9F9F9"/>
</svg>
