<svg width="334" height="336" viewBox="0 0 334 336" fill="none" xmlns="http://www.w3.org/2000/svg">
<g clip-path="url(#clip0_35_24)">
<path d="M297.86 105.13L334.29 236.49L167.27 336.11L0 236.31L38.85 105.13C20.02 96.35 6.99 77.26 6.99 55.15C7 24.71 31.67 0 62.11 0H67.1V0.04C79.83 0.08 92.55 4.84 102.6 13.44C110.38 20.07 115.81 28.33 118.56 37.33H216.62C222.35 20.02 237.87 5.51 256.22 1.53C259.9 0.67 263.55 0.19 267.2 0.04V0H272.19C302.63 0 327.3 24.71 327.3 55.15C327.3 77.29 316.69 96.38 297.86 105.13Z" fill="#FF9B50"/>
<path d="M148.97 220.82V260.89C170.78 262.17 193.04 256.3 210.45 244.29C230.68 230.55 242.91 210.72 245.96 187H220.07C211.69 220.31 179.83 231.35 148.96 220.81L148.97 220.82Z" fill="black"/>
<path d="M165.19 207.63C165.86 207.66 166.52 207.68 167.15 207.68C167.78 207.68 168.44 207.66 169.15 207.63C186.82 206.74 205.85 193.25 205.85 165.74V163.85H128.46V165.74C128.46 193.23 147.45 206.72 165.11 207.63H165.2H165.19Z" fill="black"/>
<path d="M94.47 153.19C98.77 154.31 103.19 154.99 107.56 155.2H107.69C108.78 155.26 109.85 155.29 110.88 155.29C111.91 155.29 112.98 155.26 114.04 155.21H114.13C136.43 154.11 155.47 142.04 165.67 123.09H168.91C174.21 132.98 181.94 141.06 191.61 146.72L193.75 147.97L222.83 86.36H140L94.47 153.18V153.19Z" fill="black"/>
<path d="M297.86 105.13C316.69 96.38 327.3 77.29 327.3 55.15C327.3 24.71 302.63 0 272.19 0H267.2V0.04C263.55 0.19 259.91 0.67 256.22 1.53C237.87 5.51 222.36 20.02 216.62 37.33H118.56C115.81 28.32 110.37 20.06 102.6 13.44C92.55 4.84 79.82 0.07 67.1 0.04V0H62.11C31.67 0 7 24.71 7 55.15C7 77.26 20.02 96.35 38.86 105.13L0 236.31L167.28 336.12L334.3 236.5L297.87 105.14L297.86 105.13ZM167.31 292.54L39.07 226.67L60.02 132.67H62.66C66.98 137.99 72.15 142.5 78.07 146.07L80.01 147.26L108.66 86.6H66.05C52.54 86.6 41.56 75.4 41.56 61.85C41.56 48.3 52.54 37.33 66.05 37.33C66.53 37.33 67.02 37.37 67.46 37.4C70.77 37.51 74.12 38.37 77.28 39.97C82.08 42.31 85.88 46.37 88.15 51.21C89.71 54.41 90.57 58.06 90.57 61.85C90.57 62.97 90.5 64.05 90.35 65.09V66.43H244.16C243.86 64.94 243.71 63.42 243.71 61.85C243.71 50.24 251.82 40.49 262.65 38H262.69C264.48 37.59 266.3 37.33 268.24 37.33C281.79 37.33 292.73 48.31 292.73 61.85C292.73 75.39 281.79 86.6 268.24 86.6H255.25L209.51 153.51C213.08 154.33 216.77 154.81 220.41 155H220.52C221.6 155.08 222.68 155.08 223.68 155.08C224.68 155.08 225.76 155.08 226.96 155C245.72 154.07 262.5 145.21 273.33 130.85H275.94L295.51 226.64L167.31 292.55V292.54Z" fill="black"/>
<path d="M222.83 86.37L255.25 86.59L209.51 153.5C204 152.13 198.74 150.29 193.74 147.97L222.82 86.36L222.83 86.37Z" fill="white"/>
<path d="M108.66 86.59L139.99 86.37L94.46 153.19C89.39 151.6 84.57 149.63 80 147.26L108.65 86.6L108.66 86.59Z" fill="white"/>
</g>
<defs>
<clipPath id="clip0_35_24">
<rect width="334" height="336" fill="white"/>
</clipPath>
</defs>
</svg>
