<svg width="24" height="24" viewBox="0 0 24 24" fill="none" xmlns="http://www.w3.org/2000/svg">
<g clip-path="url(#clip0_1372_6054)">
<path d="M22.5454 9.41927C21.0853 6.89327 17.7642 2.65527 11.9353 2.65527C6.10638 2.65527 2.78526 6.89327 1.3252 9.41927C0.873847 10.1948 0.634766 11.0885 0.634766 12.0003C0.634766 12.912 0.873847 13.8058 1.3252 14.5813C2.78526 17.1073 6.10638 21.3453 11.9353 21.3453C17.7642 21.3453 21.0853 17.1073 22.5454 14.5813C22.9968 13.8058 23.2358 12.912 23.2358 12.0003C23.2358 11.0885 22.9968 10.1948 22.5454 9.41927ZM20.9404 13.5343C19.6865 15.7003 16.8483 19.3453 11.9353 19.3453C7.02233 19.3453 4.18412 15.7003 2.93023 13.5343C2.66207 13.0733 2.52003 12.5421 2.52003 12.0003C2.52003 11.4584 2.66207 10.9272 2.93023 10.4663C4.18412 8.30027 7.02233 4.65527 11.9353 4.65527C16.8483 4.65527 19.6865 8.29627 20.9404 10.4663C21.2085 10.9272 21.3506 11.4584 21.3506 12.0003C21.3506 12.5421 21.2085 13.0733 20.9404 13.5343Z" fill="#394561"/>
<path d="M11.9353 7C11.0044 7 10.0944 7.29324 9.32037 7.84265C8.54633 8.39206 7.94305 9.17295 7.5868 10.0866C7.23056 11.0002 7.13734 12.0055 7.31896 12.9755C7.50057 13.9454 7.94885 14.8363 8.60711 15.5355C9.26537 16.2348 10.104 16.711 11.0171 16.9039C11.9301 17.0969 12.8765 16.9978 13.7365 16.6194C14.5966 16.241 15.3317 15.6001 15.8489 14.7779C16.3661 13.9556 16.6421 12.9889 16.6421 12C16.6406 10.6744 16.1443 9.40356 15.2619 8.46622C14.3795 7.52888 13.1832 7.00159 11.9353 7ZM11.9353 15C11.3768 15 10.8308 14.8241 10.3664 14.4944C9.90193 14.1648 9.53996 13.6962 9.32621 13.1481C9.11246 12.5999 9.05654 11.9967 9.16551 11.4147C9.27447 10.8328 9.54344 10.2982 9.9384 9.87868C10.3334 9.45912 10.8366 9.1734 11.3844 9.05764C11.9322 8.94189 12.5 9.0013 13.0161 9.22836C13.5321 9.45542 13.9732 9.83994 14.2835 10.3333C14.5938 10.8266 14.7594 11.4067 14.7594 12C14.7594 12.7957 14.4619 13.5587 13.9323 14.1213C13.4026 14.6839 12.6843 15 11.9353 15Z" fill="#394561"/>
</g>
<defs>
<clipPath id="clip0_1372_6054">
<rect width="22.5927" height="24" fill="white" transform="translate(0.638672)"/>
</clipPath>
</defs>
</svg>
